<svg xmlns="http://www.w3.org/2000/svg" width="130.758" height="42.965" viewBox="0 0 130.758 42.965"><g transform="translate(0 41.563)"><path d="M0,.489H10.744c5.3,0,9.276-2.543,9.276-7.951,0-3.868-2.006-6.017-5.3-7.163,2.507-1,4.083-2.471,4.083-5.551,0-5.372-3.975-7.055-7.664-7.055H2.077V-3.343H0Zm9.312-13c2.973,0,5.874,1.325,5.874,4.871,0,2.865-1.934,3.9-4.584,3.9H6.876v-8.775Zm.824-10.494c2.041,0,3.868.537,3.868,3.044,0,2.686-2.113,3.474-4.369,3.474H6.876v-6.518Z" transform="translate(0 0.483)" fill="#072e53"/><path d="M37.195.219h6.554V-3.613H41.671V-18.8h-4.3l-.215,2.937a7.744,7.744,0,0,0-6.411-3.367c-5.48,0-9.025,4.8-9.025,9.921,0,5.229,3.689,9.956,8.6,9.956A7.919,7.919,0,0,0,37.195-2.5Zm-.036-9.491A5.606,5.606,0,0,1,31.5-3.506c-3.331,0-5.121-2.829-5.121-5.766,0-3.152,2.006-5.8,5.265-5.8A5.583,5.583,0,0,1,37.159-9.272Z" transform="translate(0.733 0.753)" fill="#072e53"/><path d="M58.478.2h6.2V-3.627H62.6V-18.812H58.013V-6.457C56.4-4.666,54.9-3.52,53.178-3.52c-2.149,0-2.758-1.11-2.758-3.51V-18.812H45.836v13.18c0,3.152,1.039,6.268,5.623,6.268,2.22,0,3.94-.645,6.8-2.686Z" transform="translate(1.546 0.767)" fill="#072e53"/><path d="M74.515.649c4.047,0,7.378-1.683,7.378-5.945,0-4.369-3.725-5.444-6.626-6.053-2.185-.466-3.94-1.039-3.94-2.471,0-1.039,1.074-1.647,2.793-1.647a9.58,9.58,0,0,1,5.372,1.934l1.827-3.438a12.152,12.152,0,0,0-7.127-2.256c-3.94,0-7.02,1.934-7.02,5.838,0,3.868,3.617,5.121,6.411,5.659,2.077.394,4.083.967,4.083,2.471,0,1.146-1.182,2.113-3.116,2.113a11.156,11.156,0,0,1-6.2-2.543L66.242-2.252A13.766,13.766,0,0,0,74.515.649Z" transform="translate(2.235 0.753)" fill="#072e53"/><path d="M120.656.219h6.554V-3.613h-2.078V-18.8h-4.3l-.215,2.937a7.745,7.745,0,0,0-6.411-3.367c-5.479,0-9.025,4.8-9.025,9.921,0,5.229,3.688,9.956,8.6,9.956A7.92,7.92,0,0,0,120.656-2.5Zm-.036-9.491a5.606,5.606,0,0,1-5.659,5.766c-3.331,0-5.121-2.829-5.121-5.766,0-3.152,2.005-5.8,5.265-5.8A5.583,5.583,0,0,1,120.62-9.272Z" transform="translate(3.548 0.753)" fill="#072e53"/><path d="M90.367-18.814H85.782V.2h4.584V-5.131L93.518-8,98.568.2h5.8L96.885-11.363l7.629-7.449H98.64l-8.273,8.13Z" transform="translate(2.894 0.767)" fill="#072e53"/><path d="M116.878-30.77h0L107.7-21.88h-5.829l8.96-8.89h.017l-8.978-8.89h6.038Z" transform="translate(3.437 0.064)" fill="#072e53"/><path d="M116.878-30.77h-6.044l-8.977-8.89h6.061Z" transform="translate(3.436 0.064)" fill="#b48b03"/><path d="M63.9-32.851H65.38v-2.725h-4l-3.438,8.787-3.566-8.787H50.863L56.389-22h2.98Z" transform="translate(1.716 0.202)" fill="#b48b03"/><path d="M64.635-32.649h1.477v10.8h3.26V-35.374H64.635ZM66.112-37.9h3.26v-3.667h-3.26Z" transform="translate(2.18)" fill="#b48b03"/><path d="M78.057-21.737c2.878,0,5.247-1.2,5.247-4.228,0-3.107-2.649-3.871-4.712-4.3-1.554-.331-2.8-.739-2.8-1.757,0-.739.764-1.172,1.987-1.172a6.813,6.813,0,0,1,3.82,1.375l1.3-2.445a8.641,8.641,0,0,0-5.068-1.6c-2.8,0-4.992,1.375-4.992,4.151,0,2.751,2.572,3.642,4.559,4.024,1.477.28,2.9.688,2.9,1.757,0,.815-.841,1.5-2.216,1.5a7.933,7.933,0,0,1-4.406-1.808l-1.5,2.445A9.789,9.789,0,0,0,78.057-21.737Z" transform="translate(2.435 0.192)" fill="#b48b03"/><path d="M84.369-32.649h1.477v10.8h3.26V-35.374H84.369ZM85.847-37.9h3.26v-3.667h-3.26Z" transform="translate(2.846)" fill="#b48b03"/><path d="M100.033-21.914v-2.649H98.021c-1.477,0-1.63-.28-1.63-1.452v-6.571h2.063v-2.852H96.391v-4.228H93.106v4.228H91.145v2.852h1.987V-25.1c0,2.5,1.146,3.184,3.26,3.184Z" transform="translate(3.075 0.064)" fill="#b48b03"/></g></svg>